{
  "asset": {
    "version": "2.0",
    "generator": "THREE.GLTFExporter"
  },
  "scenes": [
    {
      "name": "AuxScene",
      "nodes": [
        12
      ]
    }
  ],
  "scene": 0,
  "nodes": [
    {
      "name": "fridge_Fridge_0",
      "extras": {
        "name": "fridge_Fridge_0"
      },
      "mesh": 0
    },
    {
      "matrix": [
        1,
        0,
        0,
        0,
        0,
        1,
        0,
        0,
        0,
        0,
        1,
        0,
        0,
        0.23258353769779205,
        0,
        1
      ],
      "name": "fridge",
      "extras": {
        "name": "fridge"
      },
      "children": [
        0
      ]
    },
    {
      "name": "RootNode",
      "extras": {
        "name": "RootNode"
      },
      "children": [
        1
      ]
    },
    {
      "matrix": [
        1,
        0,
        0,
        0,
        0,
        -1.3435885648505064e-7,
        1.0000001343588565,
        0,
        0,
        -1.0000001343588565,
        -1.3435885648505064e-7,
        0,
        0,
        0,
        0,
        1
      ],
      "name": "07ae895bf0b34017bfcf6bbb046ac4b0fbx",
      "extras": {
        "name": "07ae895bf0b34017bfcf6bbb046ac4b0.fbx"
      },
      "children": [
        2
      ]
    },
    {
      "name": "RootNode_(model_correction_matrix)",
      "extras": {
        "name": "RootNode (model correction matrix)"
      },
      "children": [
        3
      ]
    },
    {
      "matrix": [
        1,
        0,
        0,
        0,
        0,
        -1.3435885648505064e-7,
        -1.0000001343588565,
        0,
        0,
        1.0000001343588565,
        -1.3435885648505064e-7,
        0,
        0,
        0,
        0,
        1
      ],
      "name": "RootNode_(gltf_orientation_matrix)",
      "extras": {
        "name": "RootNode (gltf orientation matrix)"
      },
      "children": [
        4
      ]
    },
    {
      "matrix": [
        0.009999999776482582,
        0,
        0,
        0,
        0,
        -1.3435885348189617e-9,
        0.009999999434197101,
        0,
        0,
        -0.009999999434197101,
        -1.3435885348189617e-9,
        0,
        9.678916931152344,
        0,
        2.0838284492492676,
        1
      ],
      "name": "Null_4",
      "extras": {
        "name": "Null_4"
      }
    },
    {
      "matrix": [
        0.009999999776482582,
        0,
        0,
        0,
        0,
        -1.3435885348189617e-9,
        0.009999999434197101,
        0,
        0,
        -0.009999999434197101,
        -1.3435885348189617e-9,
        0,
        9.96484375,
        0,
        8.375555038452148,
        1
      ],
      "name": "Null_2",
      "extras": {
        "name": "Null_2"
      }
    },
    {
      "matrix": [
        0.009999999776482582,
        0,
        0,
        0,
        0,
        -1.3435885348189617e-9,
        0.009999999434197101,
        0,
        0,
        -0.009999999434197101,
        -1.3435885348189617e-9,
        0,
        9.968002319335938,
        0,
        0,
        1
      ],
      "name": "Null_1",
      "extras": {
        "name": "Null_1"
      }
    },
    {
      "matrix": [
        0.009999999776482582,
        0,
        0,
        0,
        0,
        -1.3435885348189617e-9,
        0.009999999434197101,
        0,
        0,
        -0.009999999434197101,
        -1.3435885348189617e-9,
        0,
        0,
        0,
        8.337425231933594,
        1
      ],
      "name": "Null_5",
      "extras": {
        "name": "Null_5"
      }
    },
    {
      "matrix": [
        0.009999999776482582,
        0,
        0,
        0,
        0,
        -1.3435885348189617e-9,
        0.009999999434197101,
        0,
        0,
        -0.009999999434197101,
        -1.3435885348189617e-9,
        0,
        0,
        0,
        2.0838284492492676,
        1
      ],
      "name": "Null_3",
      "extras": {
        "name": "Null_3"
      }
    },
    {
      "matrix": [
        0.009999999776482582,
        0,
        0,
        0,
        0,
        -1.3435885348189617e-9,
        0.009999999434197101,
        0,
        0,
        -0.009999999434197101,
        -1.3435885348189617e-9,
        0,
        0,
        0,
        0,
        1
      ],
      "name": "Null",
      "extras": {
        "name": "Null"
      }
    },
    {
      "matrix": [
        0.025,
        0,
        0,
        0,
        0,
        0.025,
        0,
        0,
        0,
        0,
        0.025,
        0,
        0,
        0,
        0,
        1
      ],
      "name": "Scene",
      "children": [
        5,
        6,
        7,
        8,
        9,
        10,
        11
      ]
    }
  ],
  "bufferViews": [
    {
      "buffer": 0,
      "byteOffset": 0,
      "byteLength": 84432,
      "target": 34962,
      "byteStride": 12
    },
    {
      "buffer": 0,
      "byteOffset": 84432,
      "byteLength": 84432,
      "target": 34962,
      "byteStride": 12
    },
    {
      "buffer": 0,
      "byteOffset": 168864,
      "byteLength": 56288,
      "target": 34962,
      "byteStride": 8
    },
    {
      "buffer": 0,
      "byteOffset": 225152,
      "byteLength": 33912,
      "target": 34963
    }
  ],
  "buffers": [
    {
      "byteLength": 259064,
      "uri": "data:application/octet-stream;base64,"
    }
  ],
  "accessors": [
    {
      "bufferView": 0,
      "componentType": 5126,
      "count": 7036,
      "max": [
        3.3219048976898193,
        18.808326721191406,
        1.9550130367279053
      ],
      "min": [
        -3.11637806892395,
        -0.20856599509716034,
        -4.744455814361572
      ],
      "type": "VEC3"
    },
    {
      "bufferView": 1,
      "componentType": 5126,
      "count": 7036,
      "max": [
        1,
        1.0000001192092896,
        1.0000001192092896
      ],
      "min": [
        -1,
        -1.0000001192092896,
        -1
      ],
      "type": "VEC3"
    },
    {
      "bufferView": 2,
      "componentType": 5126,
      "count": 7036,
      "max": [
        0.9962912201881409,
        1
      ],
      "min": [
        0,
        0
      ],
      "type": "VEC2"
    },
    {
      "bufferView": 3,
      "componentType": 5123,
      "count": 16956,
      "max": [
        7035
      ],
      "min": [
        0
      ],
      "type": "SCALAR"
    }
  ],
  "materials": [
    {
      "pbrMetallicRoughness": {
        "metallicFactor": 1,
        "roughnessFactor": 1,
        "metallicRoughnessTexture": {
          "index": 0
        },
        "baseColorTexture": {
          "index": 1
        }
      },
      "emissiveFactor": [
        1,
        1,
        1
      ],
      "emissiveTexture": {
        "index": 1
      },
      "doubleSided": true,
      "name": "Fridge"
    }
  ],
  "textures": [
    {
      "sampler": 0,
      "source": 0
    },
    {
      "sampler": 1,
      "source": 1
    }
  ],
  "samplers": [
    {
      "magFilter": 9729,
      "minFilter": 9987,
      "wrapS": 10497,
      "wrapT": 10497
    },
    {
      "magFilter": 9729,
      "minFilter": 9987,
      "wrapS": 10497,
      "wrapT": 10497
    }
  ],
  "images": [
    {
      "mimeType": "image/png",
      "uri": "data:image/png;base64,"
    },
    {
      "mimeType": "image/jpeg",
      "uri": "data:image/jpeg;base64,"
    }
  ],
  "meshes": [
    {
      "primitives": [
        {
          "mode": 4,
          "attributes": {
            "POSITION": 0,
            "NORMAL": 1,
            "TEXCOORD_0": 2
          },
          "indices": 3,
          "material": 0
        }
      ]
    }
  ]
}