{
  "asset": {
    "version": "2.0",
    "generator": "THREE.GLTFExporter"
  },
  "scenes": [
    {
      "name": "AuxScene",
      "nodes": [
        14
      ]
    }
  ],
  "scene": 0,
  "nodes": [
    {
      "name": "Mesh_1",
      "extras": {
        "name": "Mesh_1"
      },
      "mesh": 0
    },
    {
      "name": "Mesh_2",
      "extras": {
        "name": "Mesh_2"
      },
      "mesh": 1
    },
    {
      "name": "Mesh_0",
      "extras": {
        "name": "Mesh_0"
      },
      "mesh": 2
    },
    {
      "matrix": [
        0.2494097650051117,
        0,
        0,
        0,
        0,
        0.2494097650051117,
        0,
        0,
        0,
        0,
        0.2494097650051117,
        0,
        0,
        0,
        0,
        1
      ],
      "name": "sammicrowm_2",
      "extras": {
        "name": "sammicrowm_2"
      },
      "children": [
        0,
        1,
        2
      ]
    },
    {
      "matrix": [
        1,
        0,
        0,
        0,
        0,
        -1.3435885648505064e-7,
        1.0000001343588565,
        0,
        0,
        -1.0000001343588565,
        -1.3435885648505064e-7,
        0,
        0,
        0,
        0,
        1
      ],
      "name": "GLTF_SceneRootNode",
      "extras": {
        "name": "GLTF_SceneRootNode"
      },
      "children": [
        3
      ]
    },
    {
      "name": "root",
      "extras": {
        "name": "root"
      },
      "children": [
        4
      ]
    },
    {
      "matrix": [
        0.5591803193092346,
        0,
        0,
        0,
        0,
        0.5591803193092346,
        0,
        0,
        0,
        0,
        0.5591803193092346,
        0,
        0,
        0,
        0,
        1
      ],
      "name": "RootNode_(model_correction_matrix)",
      "extras": {
        "name": "RootNode (model correction matrix)"
      },
      "children": [
        5
      ]
    },
    {
      "matrix": [
        1,
        0,
        0,
        0,
        0,
        -1.3435885648505064e-7,
        -1.0000001343588565,
        0,
        0,
        1.0000001343588565,
        -1.3435885648505064e-7,
        0,
        0,
        0,
        0,
        1
      ],
      "name": "RootNode_(gltf_orientation_matrix)",
      "extras": {
        "name": "RootNode (gltf orientation matrix)"
      },
      "children": [
        6
      ]
    },
    {
      "matrix": [
        0.009999999776482582,
        0,
        0,
        0,
        0,
        -1.3435885348189617e-9,
        0.009999999434197101,
        0,
        0,
        -0.009999999434197101,
        -1.3435885348189617e-9,
        0,
        9.678916931152344,
        0,
        2.0838284492492676,
        1
      ],
      "name": "Null_4",
      "extras": {
        "name": "Null_4"
      }
    },
    {
      "matrix": [
        0.009999999776482582,
        0,
        0,
        0,
        0,
        -1.3435885348189617e-9,
        0.009999999434197101,
        0,
        0,
        -0.009999999434197101,
        -1.3435885348189617e-9,
        0,
        9.96484375,
        0,
        8.375555038452148,
        1
      ],
      "name": "Null_2",
      "extras": {
        "name": "Null_2"
      }
    },
    {
      "matrix": [
        0.009999999776482582,
        0,
        0,
        0,
        0,
        -1.3435885348189617e-9,
        0.009999999434197101,
        0,
        0,
        -0.009999999434197101,
        -1.3435885348189617e-9,
        0,
        9.968002319335938,
        0,
        0,
        1
      ],
      "name": "Null_1",
      "extras": {
        "name": "Null_1"
      }
    },
    {
      "matrix": [
        0.009999999776482582,
        0,
        0,
        0,
        0,
        -1.3435885348189617e-9,
        0.009999999434197101,
        0,
        0,
        -0.009999999434197101,
        -1.3435885348189617e-9,
        0,
        0,
        0,
        8.337425231933594,
        1
      ],
      "name": "Null_5",
      "extras": {
        "name": "Null_5"
      }
    },
    {
      "matrix": [
        0.009999999776482582,
        0,
        0,
        0,
        0,
        -1.3435885348189617e-9,
        0.009999999434197101,
        0,
        0,
        -0.009999999434197101,
        -1.3435885348189617e-9,
        0,
        0,
        0,
        2.0838284492492676,
        1
      ],
      "name": "Null_3",
      "extras": {
        "name": "Null_3"
      }
    },
    {
      "matrix": [
        0.009999999776482582,
        0,
        0,
        0,
        0,
        -1.3435885348189617e-9,
        0.009999999434197101,
        0,
        0,
        -0.009999999434197101,
        -1.3435885348189617e-9,
        0,
        0,
        0,
        0,
        1
      ],
      "name": "Null",
      "extras": {
        "name": "Null"
      }
    },
    {
      "matrix": [
        0.6,
        0,
        0,
        0,
        0,
        0.6,
        0,
        0,
        0,
        0,
        0.6,
        0,
        0,
        0,
        0,
        1
      ],
      "name": "Scene",
      "children": [
        7,
        8,
        9,
        10,
        11,
        12,
        13
      ]
    }
  ],
  "bufferViews": [
    {
      "buffer": 0,
      "byteOffset": 0,
      "byteLength": 3360,
      "target": 34962,
      "byteStride": 12
    },
    {
      "buffer": 0,
      "byteOffset": 3360,
      "byteLength": 3360,
      "target": 34962,
      "byteStride": 12
    },
    {
      "buffer": 0,
      "byteOffset": 6720,
      "byteLength": 2240,
      "target": 34962,
      "byteStride": 8
    },
    {
      "buffer": 0,
      "byteOffset": 8960,
      "byteLength": 672,
      "target": 34963
    },
    {
      "buffer": 0,
      "byteOffset": 9632,
      "byteLength": 4356,
      "target": 34962,
      "byteStride": 12
    },
    {
      "buffer": 0,
      "byteOffset": 13988,
      "byteLength": 4356,
      "target": 34962,
      "byteStride": 12
    },
    {
      "buffer": 0,
      "byteOffset": 18344,
      "byteLength": 2904,
      "target": 34962,
      "byteStride": 8
    },
    {
      "buffer": 0,
      "byteOffset": 21248,
      "byteLength": 816,
      "target": 34963
    },
    {
      "buffer": 0,
      "byteOffset": 22064,
      "byteLength": 18444,
      "target": 34962,
      "byteStride": 12
    },
    {
      "buffer": 0,
      "byteOffset": 40508,
      "byteLength": 18444,
      "target": 34962,
      "byteStride": 12
    },
    {
      "buffer": 0,
      "byteOffset": 58952,
      "byteLength": 12296,
      "target": 34962,
      "byteStride": 8
    },
    {
      "buffer": 0,
      "byteOffset": 71248,
      "byteLength": 5364,
      "target": 34963
    }
  ],
  "buffers": [
    {
      "byteLength": 76612,
      "uri": "data:application/octet-stream;base64,"
    }
  ],
  "accessors": [
    {
      "bufferView": 0,
      "componentType": 5126,
      "count": 280,
      "max": [
        2.070112466812134,
        2.409318447113037,
        1.185139775276184
      ],
      "min": [
        -2.1994974613189697,
        0.14143896102905273,
        -2.4474751949310303
      ],
      "type": "VEC3"
    },
    {
      "bufferView": 1,
      "componentType": 5126,
      "count": 280,
      "max": [
        1,
        1,
        1
      ],
      "min": [
        -1,
        -1,
        -0.9999879002571106
      ],
      "type": "VEC3"
    },
    {
      "bufferView": 2,
      "componentType": 5126,
      "count": 280,
      "max": [
        0.6839970350265503,
        0.06405150890350342
      ],
      "min": [
        0,
        0
      ],
      "type": "VEC2"
    },
    {
      "bufferView": 3,
      "componentType": 5123,
      "count": 336,
      "max": [
        279
      ],
      "min": [
        0
      ],
      "type": "SCALAR"
    },
    {
      "bufferView": 4,
      "componentType": 5126,
      "count": 363,
      "max": [
        1.8106019496917725,
        0.1664118766784668,
        0.7952553629875183
      ],
      "min": [
        -1.7006964683532715,
        -0.0011491775512695312,
        -1.8187557458877563
      ],
      "type": "VEC3"
    },
    {
      "bufferView": 5,
      "componentType": 5126,
      "count": 363,
      "max": [
        0.9634019136428833,
        -0.07227814197540283,
        0.9633995890617371
      ],
      "min": [
        -0.9634019732475281,
        -1,
        -0.9633994102478027
      ],
      "type": "VEC3"
    },
    {
      "bufferView": 6,
      "componentType": 5126,
      "count": 363,
      "max": [
        1,
        1
      ],
      "min": [
        7.450580596923828e-8,
        0.009999990463256836
      ],
      "type": "VEC2"
    },
    {
      "bufferView": 7,
      "componentType": 5123,
      "count": 408,
      "max": [
        362
      ],
      "min": [
        0
      ],
      "type": "SCALAR"
    },
    {
      "bufferView": 8,
      "componentType": 5126,
      "count": 1537,
      "max": [
        2.070112466812134,
        2.409318447113037,
        1.464691400527954
      ],
      "min": [
        -2.199491024017334,
        0.14143896102905273,
        -2.192747116088867
      ],
      "type": "VEC3"
    },
    {
      "bufferView": 9,
      "componentType": 5126,
      "count": 1537,
      "max": [
        1,
        1,
        1
      ],
      "min": [
        -1,
        -1,
        -1
      ],
      "type": "VEC3"
    },
    {
      "bufferView": 10,
      "componentType": 5126,
      "count": 1537,
      "max": [
        0.9821668267250061,
        0.9850547313690186
      ],
      "min": [
        0,
        0
      ],
      "type": "VEC2"
    },
    {
      "bufferView": 11,
      "componentType": 5123,
      "count": 2682,
      "max": [
        1536
      ],
      "min": [
        0
      ],
      "type": "SCALAR"
    }
  ],
  "materials": [
    {
      "pbrMetallicRoughness": {
        "baseColorFactor": [
          0,
          0,
          0,
          1
        ],
        "metallicFactor": 0.2891159951686859,
        "roughnessFactor": 0.5
      },
      "doubleSided": true,
      "name": "sammicrowm_Frame"
    },
    {
      "pbrMetallicRoughness": {
        "baseColorFactor": [
          0,
          0,
          0,
          1
        ],
        "metallicFactor": 0,
        "roughnessFactor": 1
      },
      "doubleSided": true,
      "name": "sammicrowm_p"
    },
    {
      "pbrMetallicRoughness": {
        "metallicFactor": 0,
        "roughnessFactor": 0.5,
        "baseColorTexture": {
          "index": 0
        }
      },
      "emissiveFactor": [
        1,
        1,
        1
      ],
      "emissiveTexture": {
        "index": 0
      },
      "doubleSided": true,
      "name": "sammicrowm_front"
    }
  ],
  "meshes": [
    {
      "primitives": [
        {
          "mode": 4,
          "attributes": {
            "POSITION": 0,
            "NORMAL": 1,
            "TEXCOORD_0": 2
          },
          "indices": 3,
          "material": 0
        }
      ]
    },
    {
      "primitives": [
        {
          "mode": 4,
          "attributes": {
            "POSITION": 4,
            "NORMAL": 5,
            "TEXCOORD_0": 6
          },
          "indices": 7,
          "material": 1
        }
      ]
    },
    {
      "primitives": [
        {
          "mode": 4,
          "attributes": {
            "POSITION": 8,
            "NORMAL": 9,
            "TEXCOORD_0": 10
          },
          "indices": 11,
          "material": 2
        }
      ]
    }
  ],
  "textures": [
    {
      "sampler": 0,
      "source": 0
    }
  ],
  "samplers": [
    {
      "magFilter": 9729,
      "minFilter": 9987,
      "wrapS": 10497,
      "wrapT": 10497
    }
  ],
  "images": [
    {
      "mimeType": "image/jpeg",
      "uri": "data:image/jpeg;base64,"
    }
  ]
}